<svg width="60" height="60" viewBox="0 0 60 60" fill="none" xmlns="http://www.w3.org/2000/svg">
<rect opacity="0.15" width="60" height="60" rx="30" fill="#1EE2CF"/>
<g clip-path="url(#clip0_46_2)">
<path d="M24.1049 24.4812L22.0256 24.6418C21.4471 24.6866 20.9318 24.9898 20.6118 25.4738L18.2138 29.1006C17.9712 29.4676 17.9326 29.9269 18.1106 30.3293C18.2886 30.7317 18.6545 31.0121 19.0892 31.0794L20.993 31.3743C21.4384 29.0108 22.5045 26.6532 24.1049 24.4812Z" fill="#1EE2CF"/>
<path d="M28.6256 39.0069L28.9205 40.9107C28.9879 41.3455 29.2683 41.7113 29.6706 41.8893C29.838 41.9634 30.0152 41.9999 30.1915 41.9999C30.4391 41.9999 30.685 41.9278 30.8994 41.786L34.5263 39.3881C35.0102 39.0681 35.3135 38.5528 35.3581 37.9743L35.5187 35.895C33.3467 37.4955 30.9891 38.5616 28.6256 39.0069Z" fill="#1EE2CF"/>
<path d="M27.9096 37.6873C27.9757 37.6873 28.0422 37.6819 28.1085 37.6708C29.0987 37.5052 30.0531 37.2263 30.9635 36.8613L23.1387 29.0365C22.7736 29.9469 22.4947 30.9012 22.3292 31.8914C22.2639 32.2818 22.3948 32.6794 22.6746 32.9593L27.0407 37.3253C27.273 37.5576 27.5866 37.6873 27.9096 37.6873Z" fill="#1EE2CF"/>
<path d="M40.0863 28.6407C42.0011 24.9388 42.072 21.0268 41.9719 19.1922C41.9377 18.5635 41.4365 18.0623 40.8078 18.0281C40.5091 18.0118 40.155 18 39.756 18C37.7045 18 34.4583 18.3107 31.3593 19.9137C28.8964 21.1876 25.6669 23.9926 23.7615 27.679C23.784 27.6965 23.806 27.7152 23.8267 27.7359L32.2641 36.1733C32.2849 36.1941 32.3035 36.216 32.321 36.2385C36.0074 34.3331 38.8124 31.1036 40.0863 28.6407ZM31.9545 23.0737C33.3251 21.703 35.5555 21.7029 36.9262 23.0737C37.5903 23.7377 37.9559 24.6206 37.9559 25.5596C37.9559 26.4987 37.5903 27.3815 36.9262 28.0455C36.241 28.7308 35.3405 29.0735 34.4404 29.0736C33.54 29.0736 32.6399 28.731 31.9545 28.0455C31.2905 27.3815 30.9247 26.4987 30.9247 25.5596C30.9247 24.6206 31.2905 23.7377 31.9545 23.0737Z" fill="#1EE2CF"/>
<path d="M32.9488 27.0512C33.7713 27.8736 35.1095 27.8737 35.932 27.0512C36.3304 26.6528 36.5498 26.1231 36.5498 25.5596C36.5498 24.9962 36.3304 24.4665 35.932 24.0681C35.5208 23.6569 34.9806 23.4513 34.4404 23.4513C33.9003 23.4513 33.3601 23.6569 32.9489 24.0681C32.5505 24.4665 32.331 24.9962 32.331 25.5596C32.331 26.1231 32.5505 26.6528 32.9488 27.0512Z" fill="#1EE2CF"/>
<path d="M18.7174 37.7782C18.8974 37.7782 19.0773 37.7096 19.2146 37.5722L21.5102 35.2766C21.7848 35.002 21.7848 34.5568 21.5102 34.2822C21.2356 34.0076 20.7904 34.0076 20.5158 34.2822L18.2202 36.5778C17.9456 36.8524 17.9456 37.2976 18.2202 37.5722C18.3575 37.7095 18.5375 37.7782 18.7174 37.7782Z" fill="#1EE2CF"/>
<path d="M23.614 36.3861C23.3394 36.1115 22.8942 36.1115 22.6196 36.3861L18.2061 40.7996C17.9315 41.0742 17.9315 41.5194 18.2061 41.794C18.3434 41.9313 18.5234 41.9999 18.7033 41.9999C18.8833 41.9999 19.0632 41.9313 19.2005 41.7939L23.6139 37.3805C23.8886 37.1059 23.8886 36.6607 23.614 36.3861Z" fill="#1EE2CF"/>
<path d="M24.7233 38.4899L22.4278 40.7855C22.1532 41.0601 22.1532 41.5053 22.4278 41.7799C22.5651 41.9171 22.745 41.9858 22.9249 41.9858C23.1048 41.9858 23.2848 41.9172 23.4221 41.7799L25.7177 39.4842C25.9923 39.2096 25.9923 38.7645 25.7177 38.4899C25.4432 38.2153 24.9979 38.2153 24.7233 38.4899Z" fill="#1EE2CF"/>
</g>
<defs>
<clipPath id="clip0_46_2">
<rect width="24" height="24" fill="white" transform="translate(18 18)"/>
</clipPath>
</defs>
</svg>
