<svg width="60" height="60" viewBox="0 0 60 60" fill="none" xmlns="http://www.w3.org/2000/svg">
<rect opacity="0.15" width="60" height="60" rx="30" fill="#FD346E"/>
<g clip-path="url(#clip0_46_4)">
<path d="M31.7424 16.0047C31.2914 15.9575 30.882 16.2683 30.8267 16.7169C30.7707 17.1671 31.0895 17.5765 31.5389 17.6325C32.6524 17.7711 33.7403 18.1653 34.7729 18.6011C35.195 18.7765 35.6728 18.5787 35.8479 18.1637C36.0234 17.7456 35.8279 17.2649 35.4105 17.0887C34.2385 16.5952 33.0041 16.1617 31.7424 16.0047Z" fill="#FD346E"/>
<path d="M40.9533 22.6667C41.3145 22.3927 41.3851 21.8776 41.1111 21.5171C40.3428 20.5053 39.44 19.6025 38.4282 18.8342C38.067 18.5619 37.5534 18.63 37.2786 18.9921C37.0047 19.3526 37.0752 19.8677 37.4365 20.1416C38.3297 20.8194 39.1259 21.6156 39.8037 22.5088C40.0785 22.8709 40.5929 22.9393 40.9533 22.6667Z" fill="#FD346E"/>
<path d="M41.7815 24.0974C41.3642 24.2737 41.1687 24.7543 41.3442 25.1725C41.78 26.2051 42.2271 27.3476 42.3658 28.4611C42.4195 28.8962 42.813 29.2278 43.2814 29.1733C43.7308 29.1172 44.0497 28.7078 43.9935 28.2577C43.8365 26.996 43.35 25.7068 42.8566 24.5348C42.6804 24.1174 42.1989 23.9244 41.7815 24.0974Z" fill="#FD346E"/>
<path d="M24.5895 17.0887C24.1721 17.265 23.9767 17.7456 24.1521 18.1638C24.3275 18.5796 24.8061 18.7761 25.2271 18.6012C26.2597 18.1653 27.3476 17.7711 28.4611 17.6325C28.9106 17.5765 29.2294 17.1671 29.1733 16.7169C29.1172 16.2683 28.7062 15.9574 28.2576 16.0048C26.9959 16.1618 25.7615 16.5952 24.5895 17.0887Z" fill="#FD346E"/>
<path d="M30 44C37.0207 44 43.126 38.6989 43.9935 31.7423C44.0496 31.2929 43.7308 30.8827 43.2814 30.8267C42.8296 30.7762 42.4211 31.0895 42.3658 31.5388C41.5999 37.6768 36.1948 42.3593 30 42.3593C23.2148 42.3593 17.6406 36.7852 17.6406 30C17.6406 27.0095 18.8272 24.0992 20.7578 21.8765V22.1481C20.7578 22.6015 21.1247 22.9684 21.5781 22.9684C22.0315 22.9684 22.3984 22.6015 22.3984 22.1481V19.8281C22.3984 19.3747 22.0315 19.0078 21.5781 19.0078H19.2574C18.804 19.0078 18.4371 19.3747 18.4371 19.8281C18.4371 20.2815 18.804 20.6479 19.2574 20.6479H19.6525C17.3803 23.1885 16 26.5412 16 30C16 37.6896 22.3104 44 30 44Z" fill="#FD346E"/>
<path d="M20.1016 30C20.1016 35.4282 24.5718 39.8984 30 39.8984C35.4282 39.8984 39.8984 35.4282 39.8984 30C39.8984 24.5718 35.4282 20.1016 30 20.1016C24.5718 20.1016 20.1016 24.5718 20.1016 30ZM30.8203 26.7188C30.8203 26.2653 31.1872 25.8984 31.6406 25.8984C32.094 25.8984 32.4609 26.2653 32.4609 26.7188V29.1797H34.1016V26.7188C34.1016 26.2653 34.4685 25.8984 34.9219 25.8984C35.3753 25.8984 35.7422 26.2653 35.7422 26.7188V33.2812C35.7422 33.7347 35.3753 34.1016 34.9219 34.1016C34.4685 34.1016 34.1016 33.7347 34.1016 33.2812V30.8203H31.6406C31.1872 30.8203 30.8203 30.4534 30.8203 30V26.7188ZM26.7188 27.5391C26.2662 27.5391 25.8984 27.9068 25.8984 28.3594C25.8984 28.8128 25.5315 29.1797 25.0781 29.1797C24.6247 29.1797 24.2578 28.8128 24.2578 28.3594C24.2578 27.0024 25.3617 25.8984 26.7188 25.8984C28.0758 25.8984 29.1797 27.0024 29.1797 28.3594C29.1797 30 28.0878 30.8187 27.2106 31.4764C26.7247 31.8411 26.3786 32.1328 26.1589 32.4609H28.3594C28.8128 32.4609 29.1797 32.8278 29.1797 33.2812C29.1797 33.7347 28.8128 34.1016 28.3594 34.1016H25.0781C24.6247 34.1016 24.2578 33.7347 24.2578 33.2812C24.2578 31.6406 25.3497 30.8219 26.2269 30.1642C27.0649 29.5354 27.5391 29.1412 27.5391 28.3594C27.5391 27.9067 27.1714 27.5391 26.7188 27.5391Z" fill="#FD346E"/>
</g>
<defs>
<clipPath id="clip0_46_4">
<rect width="28" height="28" fill="white" transform="translate(16 16)"/>
</clipPath>
</defs>
</svg>
