<svg width="60" height="60" viewBox="0 0 60 60" fill="none" xmlns="http://www.w3.org/2000/svg">
<rect opacity="0.15" width="60" height="60" rx="30" fill="#00F854"/>
<path d="M38.2162 36.0736C37.7328 34.695 35.8063 33.8321 34.4328 33.2536C33.8947 33.0277 32.405 32.6446 32.226 31.9953C32.1619 31.7614 32.1706 31.5408 32.2231 31.3294C32.1403 31.3446 32.0563 31.3536 31.9694 31.3536H31.0745C30.36 31.3536 29.7794 30.7965 29.7794 30.1123C29.7794 29.4285 30.3602 28.8726 31.0745 28.8726H31.9694C32.2651 28.8726 32.5454 28.9685 32.7715 29.1396C33.103 29.0973 33.4226 29.0294 33.7207 28.9404C34.1122 28.1545 34.4174 27.2147 34.4858 26.4058C34.7779 22.9448 32.5639 20.9199 29.3894 21.2699C27.0814 21.5245 25.7026 23.1739 25.5535 25.2972C25.4028 27.4615 26.2402 29.06 27.1296 30.2326C27.5191 30.7452 27.9283 31.0748 27.8654 31.6926C27.7925 32.4231 26.9774 32.6266 26.3945 32.8511C25.7038 33.117 24.9598 33.5204 24.6084 33.7069C23.3981 34.3475 22.0697 35.1189 21.7711 36.1741C21.1099 38.5128 23.3429 39.2212 25.1863 39.5482C26.7684 39.8279 28.5523 39.85 30.0197 39.85C32.6738 39.85 37.4465 39.7481 38.2162 37.8361C38.435 37.2936 38.3412 36.429 38.2162 36.0736V36.0736Z" fill="#0BD644"/>
<path d="M32.5358 29.7629C32.4144 29.5856 32.2068 29.4678 31.9699 29.4678H31.075C30.7015 29.4678 30.4003 29.7569 30.4003 30.113C30.4003 30.4704 30.7015 30.76 31.075 30.76H31.9699C32.2313 30.76 32.453 30.6171 32.5649 30.4106C33.8126 30.3165 34.8979 29.9513 35.6597 29.4119C35.8346 29.52 36.0415 29.5833 36.2647 29.5833H36.3209C36.943 29.5833 37.446 29.1007 37.446 28.5039V26.3493C37.446 25.9201 37.1834 25.5498 36.8047 25.3777C36.6396 21.9178 33.6509 19.15 30 19.15C26.3491 19.15 23.3599 21.9178 23.1955 25.3777C22.8161 25.55 22.5538 25.9201 22.5538 26.3493V28.5039C22.5538 29.1007 23.0573 29.5833 23.6779 29.5833H23.7348C24.3559 29.5833 24.8597 29.1007 24.8597 28.5039V26.3493C24.8597 25.9263 24.6046 25.5615 24.2338 25.3851C24.3943 22.4698 26.9186 20.1462 30 20.1462C33.0802 20.1462 35.6057 22.4698 35.7655 25.3851C35.3952 25.5617 35.1403 25.9263 35.1403 26.3493V28.5039C35.1403 28.647 35.1694 28.7801 35.2205 28.9046C34.5648 29.3542 33.6103 29.6746 32.5358 29.7629V29.7629Z" fill="#0BD644"/>
</svg>
