<svg width="60" height="60" viewBox="0 0 60 60" fill="none" xmlns="http://www.w3.org/2000/svg">
<rect opacity="0.15" width="60" height="60" rx="30" fill="#423EF3"/>
<g clip-path="url(#clip0_47_22)">
<path d="M38.5358 30.812H36.6797C36.8689 31.33 36.9722 31.889 36.9722 32.4716V39.4864C36.9722 39.7293 36.93 39.9625 36.853 40.1793H39.9215C41.0678 40.1793 42.0002 39.2468 42.0002 38.1006V34.2765C42.0003 32.3662 40.4461 30.812 38.5358 30.812Z" fill="#423EF3"/>
<path d="M23.0281 32.4715C23.0281 31.8888 23.1314 31.3299 23.3206 30.8119H21.4645C19.5542 30.8119 18 32.3661 18 34.2764V38.1005C18 39.2467 18.9325 40.1793 20.0787 40.1793H23.1473C23.0703 39.9623 23.0281 39.7292 23.0281 39.4863V32.4715Z" fill="#423EF3"/>
<path d="M32.1216 29.007H27.8784C25.9681 29.007 24.4139 30.5611 24.4139 32.4715V39.4864C24.4139 39.869 24.7241 40.1793 25.1068 40.1793H34.8933C35.276 40.1793 35.5862 39.869 35.5862 39.4864V32.4715C35.5862 30.5611 34.032 29.007 32.1216 29.007Z" fill="#423EF3"/>
<path d="M30 19.8207C27.7026 19.8207 25.8335 21.6898 25.8335 23.9873C25.8335 25.5456 26.6936 26.9066 27.9638 27.6212C28.5663 27.9601 29.2609 28.1538 30 28.1538C30.7391 28.1538 31.4337 27.9601 32.0362 27.6212C33.3065 26.9066 34.1666 25.5456 34.1666 23.9873C34.1666 21.6898 32.2975 19.8207 30 19.8207Z" fill="#423EF3"/>
<path d="M22.6837 23.7042C20.9655 23.7042 19.5676 25.102 19.5676 26.8202C19.5676 28.5385 20.9655 29.9363 22.6837 29.9363C23.1195 29.9363 23.5345 29.846 23.9116 29.6837C24.5634 29.4031 25.1009 28.9063 25.4335 28.284C25.6669 27.8473 25.7997 27.349 25.7997 26.8202C25.7997 25.1021 24.4019 23.7042 22.6837 23.7042Z" fill="#423EF3"/>
<path d="M37.3164 23.7042C35.5982 23.7042 34.2004 25.102 34.2004 26.8202C34.2004 27.3491 34.3332 27.8473 34.5666 28.284C34.8992 28.9063 35.4366 29.4031 36.0885 29.6837C36.4655 29.846 36.8805 29.9363 37.3164 29.9363C39.0346 29.9363 40.4324 28.5385 40.4324 26.8202C40.4324 25.102 39.0346 23.7042 37.3164 23.7042Z" fill="#423EF3"/>
</g>
<defs>
<clipPath id="clip0_47_22">
<rect width="24" height="24" fill="white" transform="translate(18 18)"/>
</clipPath>
</defs>
</svg>
