<svg width="60" height="60" viewBox="0 0 60 60" fill="none" xmlns="http://www.w3.org/2000/svg">
<rect opacity="0.15" width="60" height="60" rx="30" fill="#FFF500"/>
<g clip-path="url(#clip0_46_20)">
<path d="M23.5756 32.9811C23.5756 32.6017 23.2683 32.2944 22.8889 32.2944H19.4557C19.0763 32.2944 18.769 32.6017 18.769 32.9811V38.52C18.769 38.8994 19.0763 39.2067 19.4557 39.2067H22.8889C23.2683 39.2067 23.5756 38.8994 23.5756 38.52V32.9811Z" fill="#EBE55F"/>
<path d="M29.1145 28.1743H25.6813C25.3019 28.1743 24.9946 28.4816 24.9946 28.861V38.5198C24.9946 38.8991 25.3019 39.2064 25.6813 39.2064H29.1145C29.4939 39.2064 29.8011 38.8991 29.8011 38.5198V28.861C29.8011 28.4816 29.4939 28.1743 29.1145 28.1743Z" fill="#EBE55F"/>
<path d="M35.2943 26.8013H31.8611C31.4817 26.8013 31.1744 27.1085 31.1744 27.4879V38.52C31.1744 38.8994 31.4817 39.2067 31.8611 39.2067H35.2943C35.6737 39.2067 35.981 38.8994 35.981 38.52V27.4879C35.981 27.1085 35.6737 26.8013 35.2943 26.8013Z" fill="#EBE55F"/>
<path d="M41.5199 21.3081H38.0867C37.7073 21.3081 37.4 21.6154 37.4 21.9948V38.52C37.4 38.8994 37.7073 39.2067 38.0867 39.2067H41.5199C41.8993 39.2067 42.2065 38.8994 42.2065 38.52V21.9948C42.2065 21.6154 41.8993 21.3081 41.5199 21.3081Z" fill="#EBE55F"/>
<path d="M21.2181 30.8752C22.3539 30.8752 23.278 29.9511 23.278 28.8153C23.278 28.6223 23.2428 28.4394 23.193 28.2623L25.8684 26.3737C26.2043 26.6122 26.6123 26.7554 27.0546 26.7554C28.0967 26.7554 28.9513 25.9749 29.0868 24.9692L31.8262 24.3925C32.1888 24.9835 32.8351 25.3821 33.5777 25.3821C34.7135 25.3821 35.6376 24.458 35.6376 23.3221C35.6376 23.0475 35.5813 22.7863 35.4834 22.5465L38.7697 19.6254C39.0644 19.7881 39.3977 19.8889 39.7575 19.8889C40.8933 19.8889 41.8174 18.9648 41.8174 17.829C41.8174 16.6932 40.8933 15.769 39.7575 15.769C38.6217 15.769 37.6976 16.6932 37.6976 17.829C37.6976 18.1036 37.7539 18.3648 37.8518 18.6046L34.5655 21.5257C34.2708 21.3631 33.9375 21.2622 33.5777 21.2622C32.5356 21.2622 31.681 22.0427 31.5455 23.0483L28.8061 23.6251C28.4434 23.034 27.7971 22.6355 27.0546 22.6355C25.9187 22.6355 24.9946 23.5596 24.9946 24.6954C24.9946 24.8884 25.0298 25.0714 25.0796 25.2485L22.4043 27.137C22.0684 26.8986 21.6604 26.7554 21.2181 26.7554C20.0823 26.7554 19.1581 27.6795 19.1581 28.8153C19.1581 29.9511 20.0823 30.8752 21.2181 30.8752Z" fill="#EBE55F"/>
</g>
<defs>
<clipPath id="clip0_46_20">
<rect width="25" height="25" fill="white" transform="translate(18 15)"/>
</clipPath>
</defs>
</svg>
